General
      Complete name : Tau.ming.chong.[The.Warlords.2007].BRRip.H264.AAC.5.1ch.Gopo.mp4
      Format : MPEG-4
      Format profile : Base Media
      Codec ID : isom
      File size : 2.01 GiB
      Duration : 2h 5mn
      Overall bit rate : 2 284 Kbps
      Encoded date : UTC 2009-12-12 22:11:44
      Tagged date : UTC 2009-12-12 22:11:44
      Writing application : Yamb 2.1.0.0 [http://yamb.unite-video.com]
   Video #2
      ID : 2
      Format : AVC
      Format/Info : Advanced Video Codec
      Format profile : High@L4.1
      Format settings, CABAC : Yes
      Format settings, ReFrames : 2 frames
      Codec ID : avc1
      Codec ID/Info : Advanced Video Coding
      Duration : 2h 5mn
      Bit rate mode : Variable
      Bit rate : 1 916 Kbps
      Maximum bit rate : 9 587 Kbps
      Width : 1 280 pixels
      Height : 544 pixels
      Display aspect ratio : 2.35:1
      Frame rate mode : Constant
      Frame rate : 24.000 fps
      Resolution : 24 bits
      Colorimetry : 4:2:0
      Scan type : Progressive
      Bits/(Pixel*Frame) : 0.115
      Stream size : 1.68 GiB (84%)
      Writing library : x264 core 79 r1360 528c100
      Encoding settings : cabac=1 / ref=2 / deblock=1:0:0 / analyse=0x3:0x113 / me=umh / subme=8 / psy=1 / psy_rd=1.0:0.0 / mixed_ref=1 / me_range=16 / chroma_me=1 / trellis=2 / 8x8dct=1 / cqm=0 / deadzone=21,11 / chroma_qp_offset=-2 / threads=1 / nr=0 / decimate=1 / mbaff=0 / constrained_intra=0 / bframes=3 / b_pyramid=0 / b_adapt=2 / b_bias=0 / direct=3 / wpredb=1 / wpredp=2 / keyint=250 / keyint_min=25 / scenecut=40 / rc_lookahead=30 / rc=2pass / mbtree=1 / bitrate=1916 / ratetol=1.0 / qcomp=0.50 / qpmin=10 / qpmax=51 / qpstep=4 / cplxblur=20.0 / qblur=0.5 / vbv_maxrate=24000 / vbv_bufsize=24000 / ip_ratio=1.10 / aq=1:1.00
      Encoded date : UTC 2009-12-11 17:16:59
      Tagged date : UTC 2009-12-12 22:14:24
   Audio #1
      ID : 1
      Format : AAC
      Format/Info : Advanced Audio Codec
      Format version : Version 4
      Format profile : LC
      Format settings, SBR : No
      Codec ID : 40
      Duration : 2h 5mn
      Bit rate mode : Variable
      Bit rate : 365 Kbps
      Maximum bit rate : 471 Kbps
      Channel(s) : 6 channels
      Channel positions : Front: L C R, Rear: L R, LFE
      Sampling rate : 48.0 KHz
      Resolution : 16 bits
      Stream size : 328 MiB (16%)
      Encoded date : UTC 2009-12-12 22:11:44
      Tagged date : UTC 2009-12-12 22:14:24
	Sample : NO
	Subtitle : English,Romanian

PLOT

It's a heroic tale of three blood brothers and their struggle in the midst of war and political upheaval. It is based on "The Assassination of Ma," a Qing Dynasty (1644-1911) story about the killing of general Ma Xinyi. The story was filmed by Zhang Che in 1973 as The Blood Brothers.
Directors:Peter Chan , Wai Man Yip (co-director)CASTING
      
     Jet Li	... 	General Pang Qingyun (as Lianjie Li)
	Andy Lau	... 	Zhao Er-Hu (as Dehua Liu)
	Takeshi Kaneshiro	... 	Zhang Wen-Xiang (as Wu Jincheng)
	Jinglei Xu	... 	Lian
rest of cast listed alphabetically:
	Bao-ming Gu		
	Xiaodong Guo		
	Zhaoqi Shi	... 	He Kui
	Dong Dong Wang	... 	Zhang Shan
	Kuirong Wang	... 	Jiang Da Ren
	Yachao Wang	... 	Young soldier
	Zongwan Wei	... 	Cheng Da Ren
	Bo Zhou

SOURCE: The.Warlords.2007.720p.BluRay.DTS.x264.ESiR.mkv

Notes: For best performance I suggest you to use KMPlayer(find it with google) for playback
I haven't tested the movies on a PS3 or Xbox or other devices than PC because I don't own one of them but feel free to test them if you have the oportunity.
